<svg xmlns="http://www.w3.org/2000/svg" xmlns:xlink="http://www.w3.org/1999/xlink" width="858.509" height="477.577" viewBox="0 0 858.509 477.577">
  <defs>
    <clipPath id="clip-path">
      <rect width="167" height="121" fill="none"/>
    </clipPath>
  </defs>
  <g id="Group_24" data-name="Group 24" transform="translate(-960.491 -523.423)">
    <line id="Line_4" data-name="Line 4" x1="43" y2="275.5" transform="translate(1711.5 523.5)" fill="none" stroke="#707070" stroke-width="1"/>
    <line id="Line_2" data-name="Line 2" x1="161" y1="210" transform="translate(1445.5 703)" fill="none" stroke="#707070" stroke-width="1"/>
    <line id="Line_1" data-name="Line 1" x1="125" y1="139" transform="translate(1198.5 832)" fill="none" stroke="#707070" stroke-width="1"/>
    <line id="Line_3" data-name="Line 3" x2="792" y2="14" transform="translate(960.5 986.5)" fill="none" stroke="#707070" stroke-width="1"/>
    <g id="Repeat_Grid_1" data-name="Repeat Grid 1" transform="translate(1652 850)" clip-path="url(#clip-path)">
      <g transform="translate(-1541 -747)">
        <g id="Ellipse_1" data-name="Ellipse 1" transform="translate(1541 747)" fill="#639296" stroke="#707070" stroke-width="1">
          <circle cx="12.5" cy="12.5" r="12.5" stroke="none"/>
          <circle cx="12.5" cy="12.5" r="12" fill="none"/>
        </g>
      </g>
      <g transform="translate(-1496 -747)">
        <g id="Ellipse_1-2" data-name="Ellipse 1" transform="translate(1541 747)" fill="#639296" stroke="#707070" stroke-width="1">
          <circle cx="12.5" cy="12.5" r="12.5" stroke="none"/>
          <circle cx="12.5" cy="12.5" r="12" fill="none"/>
        </g>
      </g>
      <g transform="translate(-1451 -747)">
        <g id="Ellipse_1-3" data-name="Ellipse 1" transform="translate(1541 747)" fill="#639296" stroke="#707070" stroke-width="1">
          <circle cx="12.5" cy="12.5" r="12.5" stroke="none"/>
          <circle cx="12.5" cy="12.5" r="12" fill="none"/>
        </g>
      </g>
      <g transform="translate(-1406 -747)">
        <g id="Ellipse_1-4" data-name="Ellipse 1" transform="translate(1541 747)" fill="#639296" stroke="#707070" stroke-width="1">
          <circle cx="12.5" cy="12.5" r="12.5" stroke="none"/>
          <circle cx="12.5" cy="12.5" r="12" fill="none"/>
        </g>
      </g>
      <g transform="translate(-1541 -702)">
        <g id="Ellipse_1-5" data-name="Ellipse 1" transform="translate(1541 747)" fill="#639296" stroke="#707070" stroke-width="1">
          <circle cx="12.5" cy="12.5" r="12.5" stroke="none"/>
          <circle cx="12.5" cy="12.5" r="12" fill="none"/>
        </g>
      </g>
      <g transform="translate(-1496 -702)">
        <g id="Ellipse_1-6" data-name="Ellipse 1" transform="translate(1541 747)" fill="#639296" stroke="#707070" stroke-width="1">
          <circle cx="12.5" cy="12.5" r="12.5" stroke="none"/>
          <circle cx="12.5" cy="12.5" r="12" fill="none"/>
        </g>
      </g>
      <g transform="translate(-1451 -702)">
        <g id="Ellipse_1-7" data-name="Ellipse 1" transform="translate(1541 747)" fill="#639296" stroke="#707070" stroke-width="1">
          <circle cx="12.5" cy="12.5" r="12.5" stroke="none"/>
          <circle cx="12.5" cy="12.5" r="12" fill="none"/>
        </g>
      </g>
      <g transform="translate(-1406 -702)">
        <g id="Ellipse_1-8" data-name="Ellipse 1" transform="translate(1541 747)" fill="#639296" stroke="#707070" stroke-width="1">
          <circle cx="12.5" cy="12.5" r="12.5" stroke="none"/>
          <circle cx="12.5" cy="12.5" r="12" fill="none"/>
        </g>
      </g>
      <g transform="translate(-1541 -657)">
        <g id="Ellipse_1-9" data-name="Ellipse 1" transform="translate(1541 747)" fill="#639296" stroke="#707070" stroke-width="1">
          <circle cx="12.5" cy="12.5" r="12.5" stroke="none"/>
          <circle cx="12.5" cy="12.5" r="12" fill="none"/>
        </g>
      </g>
      <g transform="translate(-1496 -657)">
        <g id="Ellipse_1-10" data-name="Ellipse 1" transform="translate(1541 747)" fill="#639296" stroke="#707070" stroke-width="1">
          <circle cx="12.5" cy="12.5" r="12.5" stroke="none"/>
          <circle cx="12.5" cy="12.5" r="12" fill="none"/>
        </g>
      </g>
      <g transform="translate(-1451 -657)">
        <g id="Ellipse_1-11" data-name="Ellipse 1" transform="translate(1541 747)" fill="#639296" stroke="#707070" stroke-width="1">
          <circle cx="12.5" cy="12.5" r="12.5" stroke="none"/>
          <circle cx="12.5" cy="12.5" r="12" fill="none"/>
        </g>
      </g>
      <g transform="translate(-1406 -657)">
        <g id="Ellipse_1-12" data-name="Ellipse 1" transform="translate(1541 747)" fill="#639296" stroke="#707070" stroke-width="1">
          <circle cx="12.5" cy="12.5" r="12.5" stroke="none"/>
          <circle cx="12.5" cy="12.5" r="12" fill="none"/>
        </g>
      </g>
    </g>
  </g>
</svg>
